<?xml version="1.0" encoding="utf-8"?>
<!-- Generator: Adobe Illustrator 21.1.0, SVG Export Plug-In . SVG Version: 6.00 Build 0)  -->
<svg version="1.1" id="Layer_1" xmlns="http://www.w3.org/2000/svg" xmlns:xlink="http://www.w3.org/1999/xlink" x="0px" y="0px"
	 viewBox="0 0 627.5 171.6" style="enable-background:new 0 0 627.5 171.6;" xml:space="preserve">
<style type="text/css">
	.st0{fill:#FFFFFF;}
</style>
<g>
	<path class="st0" d="M231.2,80h-6.6v7.3h6.6v7.4c-3.4,2.2-7.7,3.3-12.7,3.3c-5.1,0-9.4-1.7-13-5.2c-3.6-3.4-5.4-8-5.4-13.7
		s1.8-10.3,5.5-13.8s8.2-5.2,13.6-5.2c2.8,0,5.3,0.3,7.4,1c2.1,0.7,4.2,1.9,6.3,3.7l4.8-6.9c-5.1-4.5-11.5-6.7-19.2-6.7
		s-14.3,2.7-19.7,8s-8.1,11.9-8.1,19.9s2.7,14.5,8,19.7s11.9,7.8,19.8,7.8c9.4,0,16.6-2.8,21.6-8.3V80H231.2L231.2,80z"/>
	<path class="st0" d="M282.8,69.8c-3.9-3.3-8.6-5-14.1-5s-10.3,1.9-14.4,5.7c-4.1,3.8-6.1,8.9-6.1,15.3s2,11.5,6,15.3
		s8.9,5.7,14.6,5.7c7,0,12.7-2.3,17.1-6.8l-4.9-5.4c-2.7,3.2-6.5,4.8-11.6,4.8c-3.2,0-6.1-0.9-8.6-2.7c-2.5-1.8-3.8-4.2-4.1-7.1
		h31.9v-5.9C288.6,77.7,286.7,73.1,282.8,69.8z M256.8,82.7c0-3.3,1.2-5.8,3.7-7.8c2.5-1.9,5.3-2.9,8.4-2.9s5.8,0.9,7.9,2.8
		c2.1,1.8,3.2,4.5,3.2,7.9H256.8z"/>
	<path class="st0" d="M316.8,64.8c-6.1,0-11.2,2-15.3,6.1c-4.1,4.1-6.1,9-6.1,14.9s2,10.8,6.1,14.9s9.2,6.1,15.3,6.1
		s11.2-2,15.3-6.1c4.1-4.1,6.1-9,6.1-14.9s-2-10.8-6.1-14.9C328,66.8,322.9,64.8,316.8,64.8z M326,95.3c-2.4,2.5-5.5,3.7-9.2,3.7
		s-6.8-1.2-9.2-3.7c-2.4-2.5-3.6-5.7-3.6-9.6s1.2-7.1,3.6-9.6s5.5-3.7,9.2-3.7s6.8,1.2,9.2,3.7c2.4,2.5,3.6,5.7,3.6,9.6
		C329.6,89.6,328.4,92.8,326,95.3z"/>
	<path class="st0" d="M369.7,64.8c-5.5,0-9.9,2.6-13.2,7.7V49.3h-8.6V106h8.6v-6.1c4.1,4.5,8.7,6.7,13.8,6.7c5.1,0,9.6-2,13.5-5.9
		c3.8-3.9,5.8-9,5.8-15.3s-1.9-11.3-5.8-15.1C379.8,66.6,375.1,64.8,369.7,64.8z M377.2,95.3c-2.5,2.4-5.4,3.7-8.8,3.7
		s-6.2-1.2-8.6-3.7c-2.3-2.5-3.5-5.6-3.5-9.5s1.2-7.1,3.5-9.7s5.2-3.9,8.6-3.9s6.3,1.3,8.8,3.9c2.4,2.6,3.7,5.8,3.7,9.7
		C380.9,89.7,379.7,92.9,377.2,95.3z"/>
	<path class="st0" d="M431.3,69.8c-3.9-3.3-8.6-5-14.1-5s-10.3,1.9-14.4,5.7c-4.1,3.8-6.1,8.9-6.1,15.3s2,11.5,6,15.3
		s8.9,5.7,14.6,5.7c7,0,12.7-2.3,17.1-6.8l-4.9-5.4c-2.7,3.2-6.5,4.8-11.6,4.8c-3.2,0-6.1-0.9-8.6-2.7c-2.5-1.8-3.8-4.2-4.1-7.1
		h31.9v-5.9C437.1,77.7,435.2,73.1,431.3,69.8z M405.2,82.7c0-3.3,1.2-5.8,3.7-7.8c2.5-1.9,5.3-2.9,8.4-2.9s5.8,0.9,7.9,2.8
		c2.1,1.8,3.2,4.5,3.2,7.9H405.2z"/>
	<path class="st0" d="M461.9,95.3l-12.2-30h-9.2c11,27.2,16.4,41.1,16.4,41.8c0,1.6-0.6,3.1-1.8,4.5c-1.2,1.4-2.8,2.1-4.7,2.1
		s-3.8-0.8-5.5-2.5l-3.9,7c3,2.7,6.4,4.1,10.1,4.1c2.6,0,5.1-0.8,7.3-2.3c2.2-1.5,3.9-3.6,5-6.3l19.7-48.3h-9.2L461.9,95.3z"/>
	<path class="st0" d="M508,64.8c-6.1,0-11.2,2-15.3,6.1c-4.1,4.1-6.1,9-6.1,14.9s2,10.8,6.1,14.9s9.2,6.1,15.3,6.1s11.2-2,15.3-6.1
		s6.1-9,6.1-14.9s-2-10.8-6.1-14.9S514.1,64.8,508,64.8z M517.2,95.3c-2.4,2.5-5.5,3.7-9.2,3.7s-6.8-1.2-9.2-3.7
		c-2.4-2.5-3.6-5.7-3.6-9.6s1.2-7.1,3.6-9.6s5.5-3.7,9.2-3.7s6.8,1.2,9.2,3.7s3.6,5.7,3.6,9.6C520.8,89.6,519.6,92.8,517.2,95.3z"/>
	<path class="st0" d="M561.2,64.8c-2.8,0-5.4,0.7-7.8,2.1c-2.4,1.4-4.3,3.4-5.7,5.9v-7.4h-8.6V106h8.6V84c0-3.8,1.1-6.6,3.3-8.6
		s4.8-2.9,7.7-2.9c6.2,0,9.3,3.7,9.3,11.2V106h8.6V81.1c0-5.3-1.4-9.4-4.2-12.2C569.5,66.2,565.8,64.8,561.2,64.8z"/>
	<path class="st0" d="M618.9,49.3v22.3c-3.3-4.6-7.7-6.9-13.1-6.9c-5.4,0-10.1,1.9-14,5.7c-3.9,3.8-5.9,8.8-5.9,15.1
		c0,6.3,1.9,11.4,5.7,15.3s8.3,5.8,13.5,5.8c6.1,0,10.7-2.2,13.8-6.7v6.1h8.6V49.3H618.9z M615.6,95.4c-2.3,2.5-5.2,3.7-8.6,3.7
		c-3.4,0-6.3-1.2-8.8-3.7c-2.5-2.4-3.7-5.6-3.7-9.5s1.2-7.1,3.7-9.7c2.4-2.6,5.4-3.9,8.8-3.9c3.4,0,6.3,1.3,8.6,3.9s3.5,5.8,3.5,9.7
		C619.1,89.7,617.9,92.9,615.6,95.4z"/>
</g>
<g>
	<path class="st0" d="M84.4,134.8c-0.6,0-1.2-0.2-1.8-0.5L1.8,87.6C0.7,87,0,85.8,0,84.5c0-1.3,0.7-2.5,1.8-3.1l25.9-15
		c1.7-1,3.9-0.4,4.9,1.3c1,1.7,0.4,3.9-1.3,4.9L10.8,84.5L84.4,127l73.1-42.2l-26.8-15.5c-1.7-1-2.3-3.2-1.3-4.9
		c1-1.7,3.2-2.3,4.9-1.3l32.3,18.6c1.1,0.6,1.8,1.8,1.8,3.1c0,1.3-0.7,2.5-1.8,3.1l-80.3,46.4C85.7,134.6,85.1,134.8,84.4,134.8z"/>
	<path class="st0" d="M84.4,171.6c-0.6,0-1.2-0.2-1.8-0.5L1.8,124.4c-1.1-0.6-1.8-1.8-1.8-3.1c0-1.3,0.7-2.5,1.8-3.1l31.9-18.4
		c1.7-1,3.9-0.4,4.9,1.3c1,1.7,0.4,3.9-1.3,4.9l-26.5,15.3l73.6,42.5l73.1-42.2l-26.5-15.3c-1.7-1-2.3-3.2-1.3-4.9
		c1-1.7,3.2-2.3,4.9-1.3l31.9,18.4c1.1,0.6,1.8,1.8,1.8,3.1c0,1.3-0.7,2.5-1.8,3.1l-80.3,46.4C85.7,171.4,85.1,171.6,84.4,171.6z"/>
	<path class="st0" d="M112.8,95.1c-0.3,0-0.6,0-0.9-0.1L7.9,67.6c-1.2-0.3-2.1-1.2-2.5-2.3C5,64.1,5.3,62.8,6,61.9L52.8,2
		c0.9-1.1,2.4-1.6,3.8-1.3l103.9,27.4c1.2,0.3,2.1,1.2,2.5,2.3c0.4,1.2,0.2,2.4-0.6,3.4l-46.8,59.8
		C114.9,94.6,113.9,95.1,112.8,95.1z M15.1,62l96.3,25.4l41.9-53.6L57,8.3L15.1,62z"/>
</g>
</svg>
